Coordinates
version=1
nRows=23
nColumns=38
inDegrees=no

Units are S.I. units (second, meters, Newtons, ...)
If the header above contains a line with 'inDegrees', this indicates whether rotational values are in degrees (yes) or radians (no).

endheader
time	pelvis_tilt	pelvis_list	pelvis_rotation	pelvis_tx	pelvis_ty	pelvis_tz	hip_flexion_r	hip_adduction_r	hip_rotation_r	knee_angle_r	ankle_angle_r	subtalar_angle_r	mtp_angle_r	hip_flexion_l	hip_adduction_l	hip_rotation_l	knee_angle_l	ankle_angle_l	subtalar_angle_l	mtp_angle_l	lumbar_extension	lumbar_bending	lumbar_rotation	arm_flex_r	arm_add_r	arm_rot_r	elbow_flex_r	pro_sup_r	wrist_flex_r	wrist_dev_r	arm_flex_l	arm_add_l	arm_rot_l	elbow_flex_l	pro_sup_l	wrist_flex_l	wrist_dev_l
0	0.997898	1.43606	0.402514	0.667461	-0.56089	0.969261	0.120757	0.0959637	-0.150266	0.363273	0.183989	0	0	0.138356	-0.103816	-0.21329	0.0923027	0.0136072	0	0	-0.113399	0.175703	0.114552	-0.156057	-0.316064	0.277698	0.714608	1.20595	0	0	-0.0559334	-0.111124	0.0621037	0.639588	0.353445	0	0
0.01	0.955476	1.43828	0.442402	0.666188	-0.55819	0.968472	0.134814	0.0887529	-0.144698	0.386705	0.191599	0	0	0.137885	-0.09633	-0.215245	0.0886607	0.0127129	0	0	-0.106213	0.168902	0.112686	-0.155209	-0.314746	0.279732	0.713793	1.19954	0	0	-0.0566112	-0.113301	0.0704764	0.64072	0.356881	0	0
0.02	0.816588	1.44605	0.576708	0.665161	-0.555409	0.966371	0.162477	0.0643404	-0.148219	0.422511	0.2079	0	0	0.145471	-0.0772007	-0.219081	0.0861104	0.0133149	0	0	-0.0891954	0.149197	0.110246	-0.155906	-0.310852	0.282731	0.713443	1.18983	0	0	-0.0598096	-0.118806	0.080719	0.644464	0.36163	0	0
0.03	0.834933	1.44324	0.553876	0.663804	-0.553259	0.966522	0.173435	0.0716076	-0.127321	0.446792	0.203438	0	0	0.141372	-0.0795546	-0.222024	0.0849143	0.0152693	0	0	-0.0902396	0.152067	0.111281	-0.151859	-0.312224	0.284813	0.713483	1.18624	0	0	-0.0569599	-0.117105	0.083722	0.64215	0.363446	0	0
0.04	0.756729	1.44565	0.625438	0.662814	-0.551102	0.965417	0.196972	0.062309	-0.114826	0.481562	0.207348	0	0	0.144469	-0.070189	-0.226221	0.0833819	0.0174855	0	0	-0.0818543	0.141839	0.112367	-0.149097	-0.310672	0.289038	0.713287	1.17669	0	0	-0.0569588	-0.119428	0.0895733	0.643691	0.366519	0	0
0.05	0.666561	1.44734	0.70817	0.661924	-0.549102	0.964252	0.223049	0.0528501	-0.100929	0.518508	0.209196	0	0	0.148731	-0.0603186	-0.230876	0.0821848	0.0195232	0	0	-0.0728624	0.130858	0.113718	-0.145361	-0.308925	0.294197	0.712528	1.16661	0	0	-0.0569023	-0.121646	0.0933031	0.644403	0.370193	0	0
0.06	0.55251	1.44039	0.807046	0.66106	-0.54827	0.962993	0.256355	0.0477878	-0.0887303	0.547711	0.203147	0	0	0.162532	-0.0552592	-0.240669	0.0832149	0.020586	0	0	-0.058916	0.124942	0.122562	-0.139864	-0.309958	0.299783	0.711352	1.15747	0	0	-0.0548909	-0.120241	0.0937331	0.640825	0.374265	0	0
0.07	0.476235	1.44111	0.87607	0.660237	-0.546419	0.962053	0.281553	0.0400414	-0.0742892	0.584724	0.199943	0	0	0.164738	-0.0457349	-0.24512	0.0807237	0.0213999	0	0	-0.0521163	0.114864	0.123014	-0.134676	-0.309041	0.307646	0.710586	1.14348	0	0	-0.0544475	-0.122087	0.0952341	0.640118	0.380394	0	0
0.08	0.409424	1.44132	0.935905	0.659446	-0.544588	0.961242	0.305651	0.0334831	-0.0619106	0.620911	0.194677	0	0	0.165484	-0.0369355	-0.248664	0.0769421	0.0217234	0	0	-0.0463916	0.105907	0.123709	-0.129559	-0.308267	0.31489	0.709765	1.1314	0	0	-0.0534086	-0.12367	0.0970049	0.638737	0.388968	0	0
0.09	0.36121	1.44207	0.978474	0.658648	-0.542661	0.960696	0.325848	0.0282885	-0.0527108	0.653463	0.188182	0	0	0.162916	-0.0291928	-0.250424	0.0710625	0.0212603	0	0	-0.0430004	0.0986136	0.12349	-0.124261	-0.307425	0.321359	0.709016	1.12335	0	0	-0.0517947	-0.124894	0.0988916	0.636546	0.401138	0	0
0.1	0.284433	1.44658	1.05412	0.657784	-0.540128	0.959873	0.339956	0.0104907	-0.0585856	0.678199	0.1885	0	0	0.156934	-0.0146137	-0.248177	0.0619827	0.0196351	0	0	-0.039196	0.0853132	0.118173	-0.120579	-0.304628	0.326511	0.709186	1.11951	0	0	-0.0520266	-0.128569	0.102859	0.636483	0.418908	0	0
0.11	0.274872	1.44788	1.06143	0.65696	-0.538118	0.959773	0.352532	0.00869958	-0.055781	0.700836	0.183853	0	0	0.149959	-0.0102962	-0.246848	0.0539477	0.0184462	0	0	-0.0372887	0.0807272	0.119705	-0.119677	-0.302901	0.325958	0.710014	1.11299	0	0	-0.0525076	-0.162225	0.394743	0.642616	1.10642	0	0
0.12	0.271046	1.44722	1.0643	0.656159	-0.536091	0.959783	0.364427	0.00810981	-0.0562986	0.717937	0.180787	0	0	0.144667	-0.0076644	-0.244777	0.0459699	0.0167443	0	0	-0.035168	0.079784	0.115176	-0.115514	-0.302444	0.330108	0.71164	1.10955	0	0	-0.0508634	-0.163172	0.399321	0.638605	1.10432	0	0
0.13	0.277754	1.44605	1.05787	0.655322	-0.534078	0.959929	0.373898	0.00840182	-0.0598258	0.729724	0.180554	0	0	0.13968	-0.00654052	-0.242372	0.038635	0.0150283	0	0	-0.0331255	0.0804263	0.110143	-0.112019	-0.302116	0.333199	0.713561	1.10588	0	0	-0.0489947	-0.163895	0.404635	0.635034	1.09731	0	0
0.14	0.296836	1.44453	1.04013	0.654501	-0.532087	0.960213	0.3806	0.0103457	-0.0649455	0.73596	0.182155	0	0	0.135046	-0.00728026	-0.239627	0.0328999	0.0137394	0	0	-0.0315578	0.0827383	0.104945	-0.109227	-0.301684	0.333537	0.715321	1.09981	0	0	-0.0468493	-0.164378	0.410266	0.631903	1.088	0	0
0.15	0.324568	1.44231	1.01475	0.653672	-0.530141	0.96058	0.385267	0.0136538	-0.0715021	0.736729	0.184274	0	0	0.131345	-0.00964836	-0.236654	0.0286553	0.0129709	0	0	-0.0300781	0.0865438	0.0994371	-0.107093	-0.301155	0.331668	0.717307	1.09631	0	0	-0.044651	-0.164701	0.41627	0.629483	1.07527	0	0
0.16	0.357248	1.43897	0.984942	0.652883	-0.528204	0.96099	0.388637	0.0182142	-0.0789192	0.732459	0.185769	0	0	0.129004	-0.0135306	-0.233839	0.0259674	0.0130013	0	0	-0.028213	0.0917023	0.0940173	-0.105536	-0.300645	0.329339	0.720055	1.09792	0	0	-0.0425589	-0.165023	0.422955	0.628057	1.05715	0	0
0.17	0.399749	1.43592	0.945949	0.652117	-0.526325	0.961546	0.389094	0.0237741	-0.087111	0.72346	0.18555	0	0	0.126149	-0.0186204	-0.231019	0.0244207	0.0134328	0	0	-0.0278962	0.097865	0.0889397	-0.104182	-0.300124	0.32635	0.72243	1.09799	0	0	-0.0394299	-0.164967	0.429665	0.62666	1.03717	0	0
0.18	0.443473	1.43291	0.905828	0.651407	-0.524529	0.96214	0.388164	0.0298417	-0.0948055	0.711207	0.18387	0	0	0.123512	-0.0241316	-0.228921	0.0241676	0.0144029	0	0	-0.0281827	0.104184	0.0843998	-0.10283	-0.299474	0.322938	0.724502	1.09673	0	0	-0.0362392	-0.164571	0.434456	0.625846	1.02572	0	0
0.19	0.48448	1.42956	0.868427	0.650782	-0.522713	0.962705	0.386527	0.0362922	-0.101505	0.696232	0.181314	0	0	0.121385	-0.0297953	-0.227338	0.0247683	0.0156776	0	0	-0.028407	0.110405	0.0802327	-0.10197	-0.298507	0.317884	0.726527	1.09512	0	0	-0.0334824	-0.164274	0.438198	0.626104	1.0157	0	0
0.2	0.528097	1.4262	0.828434	0.650241	-0.520939	0.963338	0.383295	0.043426	-0.107701	0.678322	0.177588	0	0	0.118805	-0.0360096	-0.22577	0.0256864	0.0168961	0	0	-0.0294396	0.116936	0.0767875	-0.101274	-0.297651	0.312858	0.728051	1.0952	0	0	-0.030463	-0.16388	0.441817	0.626771	1.00788	0	0
0.21	0.574983	1.4228	0.785176	0.649759	-0.519219	0.964047	0.378283	0.0511626	-0.113654	0.657399	0.172332	0	0	0.115645	-0.0427829	-0.224059	0.026857	0.0183018	0	0	-0.0313136	0.124102	0.0733927	-0.0998445	-0.297057	0.310063	0.729425	1.09838	0	0	-0.027475	-0.163147	0.443771	0.627546	1.0014	0	0
0.22	0.618233	1.41868	0.745213	0.649349	-0.517464	0.964726	0.372855	0.0594022	-0.118715	0.634125	0.165305	0	0	0.112986	-0.0498333	-0.222648	0.0280206	0.0202199	0	0	-0.0325771	0.131691	0.0708733	-0.0987835	-0.296574	0.307441	0.730753	1.10144	0	0	-0.0244669	-0.162335	0.446613	0.6282	0.997765	0	0
